<svg width="26" height="27" viewBox="0 0 26 27" fill="none" xmlns="http://www.w3.org/2000/svg">
<path d="M16 2.15969C17.728 2.15969 19.328 2.70636 20.636 3.63969L8.45733 15.817C8.32999 15.94 8.22841 16.0871 8.15853 16.2498C8.08865 16.4125 8.05187 16.5875 8.05033 16.7645C8.04879 16.9415 8.08253 17.1171 8.14957 17.281C8.21661 17.4448 8.31562 17.5937 8.44081 17.7189C8.566 17.8441 8.71487 17.9431 8.87873 18.0101C9.04259 18.0772 9.21816 18.1109 9.3952 18.1094C9.57224 18.1078 9.7472 18.071 9.90987 18.0012C10.0725 17.9313 10.2197 17.8297 10.3427 17.7024L22.5213 5.52369C23.4837 6.878 24.0005 8.49831 24 10.1597V23.493C24 24.2003 23.719 24.8785 23.219 25.3786C22.7189 25.8787 22.0406 26.1597 21.3333 26.1597H2.66667C1.95942 26.1597 1.28115 25.8787 0.781048 25.3786C0.280951 24.8785 0 24.2003 0 23.493V4.82636C0 4.11911 0.280951 3.44084 0.781048 2.94074C1.28115 2.44064 1.95942 2.15969 2.66667 2.15969H16ZM24.876 1.28369C25.126 1.53373 25.2664 1.87281 25.2664 2.22636C25.2664 2.57991 25.126 2.91899 24.876 3.16903L22.52 5.52369C22.0014 4.79421 21.3641 4.15692 20.6347 3.63836L22.9893 1.28369C23.2394 1.03373 23.5784 0.893311 23.932 0.893311C24.2855 0.893311 24.626 1.03373 24.876 1.28369Z" fill="black"/>
</svg>
