<svg width="32" height="34" viewBox="0 0 32 34" fill="none" xmlns="http://www.w3.org/2000/svg">
<path d="M0.44458 13.5002C0.44458 10.9077 1.02097 8.5303 2.17375 6.36808C3.32652 4.20614 4.87041 2.40752 6.80541 0.972247L8.45833 3.19475C6.86583 4.37975 5.595 5.86114 4.64583 7.63891C3.69666 9.41669 3.22208 11.3704 3.22208 13.5002H0.44458ZM28.7779 13.5002C28.7779 11.3704 28.3033 9.41669 27.3542 7.63891C26.405 5.86114 25.1342 4.37975 23.5417 3.19475L25.1946 0.972247C27.1296 2.40752 28.6735 4.20614 29.8262 6.36808C30.979 8.5303 31.5554 10.9077 31.5554 13.5002H28.7779ZM2.66666 28.6668V25.8889H6V13.5556C6 11.2317 6.68986 9.1553 8.06958 7.32641C9.44903 5.4978 11.2592 4.3335 13.5 3.8335V2.8335C13.5 2.13905 13.7431 1.54877 14.2292 1.06266C14.7153 0.576552 15.3056 0.333496 16 0.333496C16.6944 0.333496 17.2847 0.576552 17.7708 1.06266C18.2569 1.54877 18.5 2.13905 18.5 2.8335V3.8335C20.7408 4.3335 22.551 5.4978 23.9304 7.32641C25.3101 9.1553 26 11.2317 26 13.5556V25.8889H29.3333V28.6668H2.66666ZM16 33.6668C15.0833 33.6668 14.2986 33.3404 13.6458 32.6877C12.9931 32.0349 12.6667 31.2502 12.6667 30.3335H19.3333C19.3333 31.2502 19.0069 32.0349 18.3542 32.6877C17.7014 33.3404 16.9167 33.6668 16 33.6668ZM8.77791 25.8889H23.2221V13.5556C23.2221 11.5556 22.5185 9.85197 21.1112 8.44475C19.7037 7.03725 18 6.3335 16 6.3335C14 6.3335 12.2962 7.03725 10.8887 8.44475C9.48152 9.85197 8.77791 11.5556 8.77791 13.5556V25.8889Z" fill="#1C1B1F"/>
</svg>
