<svg width="25" height="24" viewBox="0 0 25 24" fill="none" xmlns="http://www.w3.org/2000/svg">
<path d="M7.74 2H5.84C3.65 2 2.5 3.15 2.5 5.33V7.23C2.5 9.41 3.65 10.56 5.83 10.56H7.73C9.91 10.56 11.06 9.41 11.06 7.23V5.33C11.07 3.15 9.92 2 7.74 2Z" fill="black"/>
<path d="M19.1699 2H17.2699C15.0899 2 13.9399 3.15 13.9399 5.33V7.23C13.9399 9.41 15.0899 10.56 17.2699 10.56H19.1699C21.3499 10.56 22.4999 9.41 22.4999 7.23V5.33C22.4999 3.15 21.3499 2 19.1699 2Z" fill="black"/>
<path d="M19.1699 13.4302H17.2699C15.0899 13.4302 13.9399 14.5802 13.9399 16.7602V18.6602C13.9399 20.8402 15.0899 21.9902 17.2699 21.9902H19.1699C21.3499 21.9902 22.4999 20.8402 22.4999 18.6602V16.7602C22.4999 14.5802 21.3499 13.4302 19.1699 13.4302Z" fill="black"/>
<path d="M7.74 13.4302H5.84C3.65 13.4302 2.5 14.5802 2.5 16.7602V18.6602C2.5 20.8502 3.65 22.0002 5.83 22.0002H7.73C9.91 22.0002 11.06 20.8502 11.06 18.6702V16.7702C11.07 14.5802 9.92 13.4302 7.74 13.4302Z" fill="black"/>
</svg>
